<svg width="200" height="200" viewBox="0 0 200 200" fill="none" xmlns="http://www.w3.org/2000/svg">
  <rect x="40" y="40" width="120" height="140" rx="8" fill="#E0E7FF" />
  <rect x="60" y="70" width="80" height="10" rx="2" fill="#C7D2FE" />
  <rect x="60" y="90" width="60" height="10" rx="2" fill="#C7D2FE" />
  <rect x="60" y="110" width="70" height="10" rx="2" fill="#C7D2FE" />
  <rect x="60" y="130" width="50" height="10" rx="2" fill="#C7D2FE" />
  <path d="M140 50H60C58.8954 50 58 50.8954 58 52V54C58 55.1046 58.8954 56 60 56H140C141.105 56 142 55.1046 142 54V52C142 50.8954 141.105 50 140 50Z" fill="#818CF8" />
  <circle cx="145" cy="45" r="15" fill="#6366F1" fillOpacity="0.3" />
  <path d="M145 37V53" stroke="#4F46E5" strokeWidth="2" strokeLinecap="round" />
  <path d="M153 45H137" stroke="#4F46E5" strokeWidth="2" strokeLinecap="round" />
</svg> 